<?xml version="1.0" encoding="UTF-8"?>
<svg width="16px" height="16px" viewBox="0 0 16 16" version="1.1" xmlns="http://www.w3.org/2000/svg" xmlns:xlink="http://www.w3.org/1999/xlink">
    <title>UI element / Icons / Success</title>
    <g id="Draft-2" stroke="none" stroke-width="1" fill="none" fill-rule="evenodd">
        <g id="Form-1-Copy-3" transform="translate(-44.000000, -685.000000)" fill="#E12589">
            <g id="CRT-Errors/-radio-checkbox-error" transform="translate(29.000000, 681.000000)">
                <g id="UI-element-/-Icons-/-Success" transform="translate(15.000000, 4.000000)">
                    <path d="M8,0 C12.4166667,0 16,3.58333333 16,8 C16,12.4166667 12.4166667,16 8,16 C3.58333333,16 0,12.4166667 0,8 C0,3.58333333 3.58333333,0 8,0 Z M9,13.6132812 L9,11.3867188 C9,11.1757812 8.8359375,11 8.63671875,11 L6.38671875,11 C6.17578125,11 6,11.1757812 6,11.3867188 L6,13.6132812 C6,13.8242188 6.17578125,14 6.38671875,14 L8.63671875,14 C8.8359375,14 9,13.8242188 9,13.6132812 Z M8.8125,8.73958333 L9,2.27083333 C9,2.19791667 8.96875,2.125 8.89583333,2.08333333 C8.83333333,2.03125 8.73958333,2 8.64583333,2 L6.35416667,2 C6.26041667,2 6.16666667,2.03125 6.10416667,2.08333333 C6.03125,2.125 6,2.19791667 6,2.27083333 L6.17708333,8.73958333 C6.17708333,8.88541667 6.33333333,9 6.53125,9 L8.45833333,9 C8.64583333,9 8.80208333,8.88541667 8.8125,8.73958333 Z" id="ïª-copy"></path>
                </g>
            </g>
        </g>
    </g>
</svg>