<?xml version="1.0" standalone="no"?>
<!DOCTYPE svg PUBLIC "-//W3C//DTD SVG 20010904//EN"
 "http://www.w3.org/TR/2001/REC-SVG-20010904/DTD/svg10.dtd">
<svg version="1.0" xmlns="http://www.w3.org/2000/svg"
 width="262.000000pt" height="262.000000pt" viewBox="0 0 262.000000 262.000000"
 preserveAspectRatio="xMidYMid meet">
<metadata>
Created by potrace 1.14, written by Peter Selinger 2001-2017
</metadata>
<g transform="translate(0.000000,262.000000) scale(0.100000,-0.100000)"
fill="#000000" stroke="none">
<path d="M1299 2612 c-16 -2 -32 -15 -44 -34 -17 -30 -18 -78 -20 -977 -1
-520 -5 -957 -8 -971 -4 -14 -15 -67 -24 -118 -16 -89 -16 -95 2 -127 36 -68
130 -83 186 -29 38 36 40 63 16 189 -21 107 -21 140 -24 1055 -2 861 -4 948
-19 977 -18 35 -27 40 -65 35z"/>
<path d="M873 2105 c-102 -25 -160 -142 -119 -238 17 -42 72 -94 105 -102 l27
-6 0 -702 c0 -653 2 -706 19 -757 88 -266 388 -379 624 -236 31 19 68 47 83
63 45 48 96 142 109 202 8 39 11 257 11 742 l0 686 33 12 c69 25 125 123 109
194 -24 114 -94 154 -263 151 -79 -1 -96 -4 -108 -20 -17 -23 -17 -45 1 -69
12 -17 28 -19 107 -20 52 -1 103 -4 115 -8 25 -9 45 -45 40 -72 -3 -11 -5 -23
-5 -27 -2 -21 -62 -35 -145 -33 -77 1 -91 -2 -107 -19 -42 -44 -11 -89 61 -90
27 -1 50 -5 50 -11 1 -5 2 -108 3 -228 2 -211 1 -217 -18 -218 -11 -1 -24 -1
-29 0 -20 4 -56 -31 -56 -54 0 -40 27 -59 78 -55 17 1 22 -4 23 -22 4 -131 -1
-781 -6 -808 -16 -87 -82 -172 -169 -218 -44 -23 -64 -27 -136 -27 -71 0 -93
4 -134 25 -86 44 -152 125 -172 210 -7 33 -14 804 -7 825 2 6 18 12 36 13 31
2 67 32 67 56 0 23 -25 45 -59 51 -19 3 -37 8 -40 10 -9 5 -7 432 2 441 4 4
28 9 53 10 48 3 74 24 69 53 -2 9 -4 21 -4 28 -1 19 -40 27 -140 28 -85 1 -95
3 -112 24 -32 39 -23 84 20 105 16 8 57 12 106 11 72 -2 124 8 126 24 0 3 2
14 4 23 2 10 -5 28 -14 39 -15 19 -29 22 -107 23 -49 1 -108 -3 -131 -9z"/>
</g>
</svg>
