<?xml version="1.0" encoding="UTF-8"?>
<svg width="24px" height="24px" viewBox="0 0 24 24" version="1.1" xmlns="http://www.w3.org/2000/svg" xmlns:xlink="http://www.w3.org/1999/xlink">
    <title>Group 3</title>
    <defs>
        <path d="M10.3230769,1.42999968 C10.3230769,1.59823497 10.2384615,1.76647027 10.1538462,1.85058791 L5.33076923,6.6452938 L4.4,7.57058791 C4.31538462,7.65470556 4.14615385,7.73882321 3.97692308,7.73882321 C3.80769231,7.73882321 3.63846154,7.65470556 3.55384615,7.57058791 L2.62307692,6.6452938 L0.253846154,4.28999968 C0.169230769,4.20588203 0.0846153846,4.03764674 0.0846153846,3.86941144 C0.0846153846,3.70117615 0.169230769,3.53294086 0.253846154,3.44882321 L1.18461538,2.52352909 C1.26923077,2.43941144 1.43846154,2.3552938 1.60769231,2.3552938 C1.77692308,2.3552938 1.94615385,2.43941144 2.03076923,2.52352909 L3.97692308,4.45823497 L8.29230769,0.168234973 C8.37692308,0.0841173262 8.54615385,-3.20883052e-07 8.71538462,-3.20883052e-07 C8.88461538,-3.20883052e-07 9.05384615,0.0841173262 9.13846154,0.168234973 L10.0692308,1.09352909 C10.2384615,1.17764674 10.3230769,1.26176438 10.3230769,1.42999968 L10.3230769,1.42999968 Z" id="path-1"></path>
    </defs>
    <g id="Draft-3---English" stroke="none" stroke-width="1" fill="none" fill-rule="evenodd">
        <g id="Confirmation-alt-Copy" transform="translate(-28.000000, -196.000000)">
            <g id="Group-3" transform="translate(29.000000, 197.000000)">
                <circle id="Oval" stroke="#8BE0F6" stroke-width="2" cx="11" cy="11" r="11"></circle>
                <g id="Icons/checkmark" transform="translate(5.823529, 7.117647)">
                    <mask id="mask-2" fill="white">
                        <use xlink:href="#path-1"></use>
                    </mask>
                    <use id="color" fill="#8BE0F6" xlink:href="#path-1"></use>
                    <g id="fill" mask="url(#mask-2)" fill="#8BE0F6">
                        <g transform="translate(-3.384615, -5.047059)" id="Rectangle">
                            <polygon points="0 0 18.6153846 0 18.6153846 17.6647059 0 17.6647059"></polygon>
                        </g>
                    </g>
                </g>
            </g>
        </g>
    </g>
</svg>
