<?xml version="1.0" encoding="utf-8"?>
<!-- Generator: Adobe Illustrator 26.0.2, SVG Export Plug-In . SVG Version: 6.00 Build 0)  -->
<svg version="1.1" id="Layer_1" xmlns="http://www.w3.org/2000/svg" xmlns:xlink="http://www.w3.org/1999/xlink" x="0px" y="0px"
	 viewBox="0 0 564 564" style="enable-background:new 0 0 564 564;" xml:space="preserve">
<style type="text/css">
	.st0{fill:#05C3DD;}
	.st1{fill:#0057B7;}
</style>
<g>
	<path class="st0" d="M459.3,202.1c0,3.5,1.4,8.9,1.4,8.9s4.3,4.5,3,6.7c-1.4,2.2-5.3,4.1-5.3,4.1l-7.1,3.5c0,0-6.7,3-6.9,4.7
		c-0.2,1.8-0.2,9.7-0.2,9.7l-2.8,4.3v11.1c0,0-2.5,11.1-3.4,8.6s-2.2-8.3-2.2-8.3l-3.7-0.3v7.7l5.8,6.2c0,0,6.8,4.9,5.8,8.3
		c-0.9,3.4-13.8,14.5-13.8,14.5s-8.9,8.9-8.9,11.1s-8.3,10.1-8.3,10.1s-8,9.8-1.8,20.9s9.2,16.3,9.2,16.3l4.4,7.1c0,0,1.4,1.8,1,7.4
		c-0.4,5.5-1.4,7.8-1.4,7.8s-2.9,4.3-5.9,1.4c-3.1-2.9-8-9.8-8-9.8l-8.6-10.9c0,0-0.4-4.5,0.2-7.2s-7.2-10-7.2-10s-5.1-3.3-10.9,2
		c-5.7,5.3-6.8-1.6-6.8-1.6s-2.3-3.9-9-2.9c-6.8,1-11.1,2.3-11.1,2.3s-12.1-1.2-12.7,0.2s1.4,2.3,1.4,2.3s4.5,1,2.7,3.7
		s-5.9,7.6-9.2,6.8c-3.3-0.8-11.3-4.5-11.3-4.5l-10-0.8c0,0-6.8-1.2-17.6,9.2c-10.8,10.4-12.7,8.6-12.7,11.5s1.4,8,1.4,9
		s-0.2,4.1-1.6,4.1s-2.9-1.4-2.9-1.4l-5.5-1c0,0-7.8-2.9-7.8-7s-1.4-6.3-1.4-6.3s-5.7-6.1-5.7-6.8s-3.1-8.8-3.1-8.8
		s-8.6-8.2-13.3-3.7c-3.4,3.2-3.7,3.3-3.6,3.1c-0.6,0.9-3,3.8-7.4-1c-5.1-5.5-4.1-3.9-4.7-7.8c-0.6-3.9-7.6-11.7-7.6-11.7
		s-4.7-3.9-9.2-4.5s-8.2,1-8.4,3.1c-0.2,2-9,0.4-9,0.4s-16-3.9-22.5-8.6c-6.6-4.7-13.7-7.6-13.7-7.6l-4.9-4.1l-12.3-2.3l-1.4-3.9
		c0,0-11.7-14.1-14.8-16.1c-1.8-0.7-4.2-1.4-5.1-11.4c-3.9-5.4-4.3-7-4.3-7v-6.3l-3-14.2c0,0-3.3-7-2.8-9.7s0-7.4,0-7.4
		s-0.7-4.8,1.2-6.5s3-11.6,3-11.6s-1-5.5,0.2-6.3c1.1-0.8,4.4-6.5,4.4-6.5s6.5-16.8,6.5-18.2s1.6-21.8,1.6-21.8s1.7-2.4,3.2-0.3
		c1.4,2.1,6.3,3.3,6.3,3.3s-4.1,12,0,10.6s3-9,3-9s-2.2-3.6-1.9-4.6s0.9-2.9,0.9-2.9s43.7,18.7,161.9,22.4c0.7-2.9,1.4-2.4,1.4-2.4
		s2.1,0.8,2.1,1.5s0.5,3.3,0.5,3.3l4.3,1.1h7.6l7,4.8l5.7-1.6l6.7,1.6c0,0,5.1-5.4,7.5-4.3c2.4,1.1,22.1,12.6,22.1,12.6v1.3h3v4.8
		h4.6v2.4c0,0,6.7-0.3,7.3,1.6c0.5,1.9,3.5,18,3.5,20.4s-3.8,8.1-3.8,8.1s0.8,4.6,3.8,4c3-0.5,8.3-6.7,8.3-6.7s12.6-4.3,12.6-7
		s-1.6-6.7-1.6-6.7s0.5-3,6.5-3c5.9,0,7.5-0.3,7.5-0.3l4.8-10c0,0,3-5.4,12.4-7.3c9.4-1.9,13.1-2.4,14.3-4.4c1.2-2,2.7-7.9,3.2-12.8
		c0.5-4.9,7.4-8.9,7.4-8.9s5.9-4,6.8,4.6c1,8.6,8.5,12.4,8.5,12.4l-7.5,7.5C469.4,190.6,459.3,198.5,459.3,202.1z M153.6,390.2
		c0-0.5-0.4-1-1-1.1l-1.7-0.4c-0.2,0-0.4,0-0.6,0l-1.7,0.6c-0.3,0.1-0.6,0.4-0.7,0.7l-0.5,1.5c0,0.1-0.1,0.2-0.1,0.3
		c0-0.1,0-0.1,0-0.2l-0.1-0.3c-0.2-0.5-0.7-0.9-1.2-0.9h-1c-0.4,0-0.7,0.2-1,0.6l-0.9,1.4c-0.2,0.4-0.3,0.8-0.1,1.2
		c0.2,0.4,0.6,0.6,1,0.7l1,0.1c0.4,0,0.8-0.1,1-0.4l1-1.2c0.2-0.2,0.2-0.4,0.3-0.7c0,0.4,0.3,0.7,0.6,0.9l2.4,1.3
		c0.2,0.1,0.4,0.1,0.6,0.1l0.9-0.1c0.4,0,0.8-0.3,1-0.7l0.8-1.6c0.1-0.2,0.1-0.4,0.1-0.7L153.6,390.2z M166.9,398.6L166,398
		l-0.6-1.4l-0.7-1.6c-0.3-0.6-0.9-0.8-1.5-0.6l-2.5,1c-0.3,0.1-0.5,0.3-0.6,0.6l-0.4,0.8c-0.2,0.3-0.1,0.8,0,1.1l1.3,2.4
		c0.2,0.4,0.6,0.6,1.1,0.6h1h0.1l0.1,0.1c0.2,0.2,0.5,0.3,0.8,0.4c0,0,0,0,0.1,0h1.5c0.4,0,0.7-0.2,1-0.5l0.5-0.6
		c0.2-0.3,0.3-0.6,0.2-0.9C167.4,399.1,167.2,398.8,166.9,398.6z M190.2,417.1l-1.3-1l-0.5-1.6c0-0.1-0.1-0.1-0.1-0.2l-0.6-1.1
		c-0.1-0.2-0.2-0.3-0.3-0.4l-1.3-1l-0.1-0.1l-4.4-2.5c-0.4-0.2-0.9-0.2-1.3,0l-0.7,0.5c-0.3,0.2-0.5,0.6-0.5,1v0.8
		c0,0.3,0.1,0.5,0.2,0.8l0.1,0.1l-0.5,0.6l-0.7,0.2c-0.5,0.2-0.8,0.6-0.8,1.1v1.1c0,0.3,0.1,0.6,0.3,0.9l0.6,0.6l0.3,1.8l-0.2,0.7
		c0,0.1-0.1,0.2-0.1,0.4v1.9c0,0.4,0.1,0.7,0.4,0.9l1.4,1.2c0.2,0.1,0.3,0.2,0.6,0.3l0.7,0.1h0.1c0.4,0,0.7-0.1,1-0.4l1.1-1.1
		l0.9-1.1l0.6-0.3h0.1c0.3,0.1,0.6,0.2,0.8,0.1l1.8-0.5c0.1,0,0.3-0.1,0.4-0.2l1.7-1.2c0.2-0.2,0.4-0.4,0.5-0.6l0.2-0.5
		C190.8,417.9,190.6,417.4,190.2,417.1z M179.2,408.2l1.6-0.6c0.4-0.2,0.7-0.6,0.7-1l0.1-0.8c0-0.4-0.2-0.8-0.5-1.1l-1.7-1.3
		c-0.1-0.1-0.2-0.1-0.3-0.2l-1.7-0.6l-1.8-1.1c-0.1,0-0.1-0.1-0.2-0.1c0-0.1-0.1-0.2-0.1-0.4c-0.2-0.3-0.5-0.5-0.8-0.6l-2.5-0.5
		c-0.2,0-0.4,0-0.7,0.1l-1.4-0.4c-0.5-0.1-1,0-1.3,0.4l-0.6,1c-0.2,0.3-0.3,0.7-0.2,1.1s0.4,0.7,0.7,0.8l1.3,0.5v0.1v0.5
		c0,0.2,0,0.4,0.1,0.5l0.7,1.7c0.2,0.6,0.8,0.9,1.4,0.7l1.3-0.4c0.3-0.1,0.5-0.3,0.7-0.5l0.8,1.3c0.1,0.1,0.2,0.2,0.3,0.3l0.9,0.7
		c0.2,0.1,0.4,0.2,0.6,0.2c0.1,0,0.2,0,0.2,0l2-0.3C179,408.3,179.1,408.3,179.2,408.2z M197.7,385.9l-2.8-1.9l-1.9-4.2l-2.3-3.3
		l-1.5-1.8L187,373l-0.2-1.5l-0.5-0.7l-0.9-0.3l-1.2,0.7l-0.8,1.5l-1,1.2H182l-2.9-2.4l-1.2-2.2l-0.9-0.8l-2.9-0.3l-1-0.3v-41.3
		l-1.8-0.9l-3.1-1.5l-3.8,0.7l-5.6-0.4l-0.7-0.9l-4.2-1l-4.5,0.4l-2.4-1.6l-3.7-0.4l-3.9-2.1l-2.4,0.4l-1.9,1.7h-2.7l-2.7,0.9
		l-2.2,1.5l-2.4,0.6l-1.4,1.3l-2.5,3.8l-5.2,1.1l-0.8,1.5l0.3,1.2l2.2,0.9l2.9,2l0.7,1.7l0.9,0.4l3.4,0.3l0.7,2.5l-1.1,0.3l-0.5-0.4
		l-2.3-0.4l-3.8,0.3l-6.5,3.2l-0.8,0.7l0.5,0.6l2.1,1l1.3,2.9l1.5,0.8l2.5-0.3l1.4-0.4l0.9,0.4l1.9,0.2l2.7-1.4l1.4-0.2l0.3,1
		l-0.8,1l0.5,1.2l0.2,2.2l-0.8,0.6l-2.6,0.4l-1.1,1.3l-1.4,0.3l-1.4-0.9l-1,0.2l-1.8,3.6l-1.2,1.6l-0.3,1.8l0.5,1.8l1.1,1.3l0.5,2.7
		l0.7,0.5l1.2,1.9l2.1,0.3l0.7-0.6l1.3-0.5l1,0.9l0.5,1.2l-0.4,1.5l0.5,2.2l1,0.3l0.9-0.6l1.7-0.4l1.5,0.7l1,1.7l0.6-0.3v-0.6
		l-0.4-1.1h0.8l0.8,0.7l1.9-0.5l0.5,0.4l-0.8,1.1l-0.4,3.2l-1.9,2.5l-3.8,3.5l-7.6,5.7l-8.4,5.2l-6.7,3.6l-5.7,1.8l-4.7,2.1
		l-4.8,0.8l-3.8,1.6l8-0.5l1.8-1.1l3-0.5l14.9-6.9l19.3-11.2l1.9-2.9l1-0.5l0.9-1.9l3.7-3.3l2.7-3.1v-0.6l-1.4-0.3l-0.3-0.4l0.3-1
		l1.8-2.3l1.5-1.1l1.2-2.3l1.6-2l1.8-1.2l0.8,0.3l0.8,0.6l-0.5,0.6l-1.6,0.3l-2.1,4.8l0.5,0.8l-0.4,0.5l-0.2,0.9l0.8,0.3l1.6-0.4
		l3.3-2.6l3.2-0.4l1.3-0.7l1.2-1.1l3-0.2l3.1,1.2l4.8,0.5l3.6,1.2l5.1,3.6l1.7,1.7l1.6,1h3.3l1,0.6l2.2,2.2l0.2,0.8l-0.3,0.6
		l-0.5,0.2l-1.5-0.2l-0.9-0.5l-0.9,0.3l-0.3,1.1l0.2,2l1.3,1.9l0.6,1.3l0.7,0.6l0.6-0.1l1.6-2.2l0.7-0.3l0.6,0.2l0.3,1.8l1,2.4
		l0.9,0.8l1.1,0.8l0.5,1l0.8,0.9l1.2-0.3l0.5-0.5l0.2-3.5l0.3-1.8L197.7,385.9z M415.7,388l-0.4,0.3l-0.1,0.3l0.2,0.5l-0.1,0.3
		l-0.8,0.5l-0.9,0.3l0.5,1l0.6,0.2l0.3,0.9l0.3,0.3l-0.5,0.6v0.5l0.1,0.4l-0.3,0.5l-0.1,0.7l0.6,0.2l-0.1,0.2l-0.4,0.2l-0.1,0.2v0.5
		l0.3,0.3h0.2l-0.1-0.3l0.2-0.2l0.3,0.2l0.8,0.1l0.6-0.5l0.3,0.1l0.6-0.1l0.7,0.6l0.5,0.1l0.1-0.1l0.2-0.3h0.6h0.5l0.7-0.4l0.6-0.3
		h0.4l0.8,0.4l0.7-0.3l0.7,0.3l1.2-0.4h0.6l1.2,0.8l0.4-0.5l0.6-0.2l0.5,0.6l0.7,0.2l0.1-0.3l0.4-0.3l0.5,0.3l0.2,0.3l1.2-0.6
		l0.5,0.2l0.4-0.4l0.2-0.1l0.4,0.2l0.9-0.1l0.5-0.2l0.4-0.3l0.3-0.1l0.1-0.3l-0.1-0.3l0.6-0.2l0.3-1l0.7-0.8l0.3-0.1l0.3-0.1
		l0.4-0.2l0.5,0.1l0.3-0.2l0.3-0.3l-0.3-0.4l-0.2-0.4v-0.4v-0.4l-0.1-0.2l0.3-0.3v-0.3l-0.4,0.1l-0.3,0.3l-0.5-0.1l-0.3-0.3
		l-0.3,0.2l-0.1-0.1l-0.3-0.3v-0.2l-0.3-0.1l-0.4,0.2l-0.3-0.4l-0.6-0.1l-0.4-0.2l-0.3,0.1l-1-0.2l-0.1,0.2h-0.3l-0.2-0.2l-1.3-0.3
		l-0.2,0.1l-0.5,0.2l-0.2-0.3l-0.5,0.1l-0.7-0.2l-0.2,0.1l-1.7-0.4l-0.6,0.1l-0.3,0.3l-1-0.3l-0.5-0.1l-0.3,0.1l-0.7-0.2l-0.8,0.1
		l-0.4,0.1l-0.1,0.2h-0.5l-0.7-0.3l-0.6,0.1l-0.6-0.1l-0.7,0.1l-1-0.1l-0.6-0.3l-1.1-0.1L415.7,388z"/>
</g>
<g>
	<g>
		<polygon class="st1" points="289.7,131 289.7,197.4 343.6,197.4 343.6,181.7 307.9,181.7 307.9,171.2 339.8,171.2 339.8,156.7 
			307.9,156.7 307.9,146.6 343.1,146.6 343.1,131 		"/>
	</g>
	<g>
		<polygon class="st1" points="223.2,130.8 210.4,169.4 198.8,131 179.4,131 201.6,197.8 217.6,197.8 231,159.6 244.2,197.8 
			260.2,197.8 282.4,131 263.4,131 251.8,169.4 239,130.8 		"/>
	</g>
	<g>
		<polygon class="st1" points="246.4,431.7 264.8,431.7 264.8,406.5 288.4,406.5 288.4,431.7 306.8,431.7 306.8,365.4 288.4,365.4 
			288.4,390.2 264.8,390.2 264.8,365.4 246.4,365.4 		"/>
	</g>
	<g>
		<rect x="319" y="365.4" class="st1" width="18.4" height="66.3"/>
	</g>
	<g>
		<path class="st1" d="M375.6,432.9c16.1,0,26.8-8.1,26.8-21.6v-0.2c0-12.4-9.5-17.3-24.6-20.7c-9.3-2.1-11.6-3.4-11.6-6.4v-0.2
			c0-2.5,2.2-4.3,6.6-4.3c5.9,0,12.5,2.2,18.6,6.5l9.2-13c-7.2-5.8-16-8.8-27.3-8.8c-15.9,0-25.7,8.9-25.7,21.2v0.2
			c0,13.6,10.9,17.5,25,20.8c9.1,2.2,11.3,3.6,11.3,6.4v0.2c0,2.8-2.7,4.5-7.7,4.5c-7.7,0-14.9-2.7-21.5-8l-10.2,12.2
			C352.7,429.2,363.8,432.9,375.6,432.9"/>
	</g>
	<g>
		<path class="st1" d="M183.9,353h25.3c23.8,0,37.7-14.2,37.7-33.4v-0.2c0-19.1-13.7-32.8-37.3-32.8h-25.7V353z M209.7,302.9
			c11.1,0,18.4,6.3,18.4,16.9v0.2c0,10.7-7.3,16.8-18.4,16.8h-7.5V303h7.5V302.9z M289.9,354.4c20.5,0,35.8-15.4,35.8-34.5v-0.2
			c0-19.1-15.2-34.3-35.6-34.3c-20.5,0-35.8,15.4-35.8,34.5v0.2C254.3,339.1,269.4,354.4,289.9,354.4 M290.1,337.8
			c-10.1,0-17.1-8.3-17.1-17.9v-0.2c0-9.6,6.7-17.7,16.9-17.7c10.1,0,17,8.2,17,17.9v0.2C306.9,329.6,300.1,337.8,290.1,337.8"/>
	</g>
	<g>
		<path class="st1" d="M215.9,278c14.6,0,23-6.4,29.3-15l-13.8-9.9c-4,4.8-8.1,8.1-15,8.1c-9.3,0-15.8-7.8-15.8-17.7v-0.2
			c0-9.7,6.5-17.6,15.8-17.6c6.4,0,10.7,3.1,14.5,7.8l13.8-10.7c-5.9-8.1-14.6-13.7-28.1-13.7c-20.1,0-34.9,15.2-34.9,34.5v0.2
			C181.7,263.5,196.9,278,215.9,278 M247.4,276.6h19.2l4.7-11.9H297l4.7,11.9h19.7l-28.2-66.8h-17.7L247.4,276.6z M276.7,250.4
			l7.5-18.8l7.4,18.8H276.7z M327.9,276.6h18.2v-36.4l28.4,36.4h16v-66.3h-18.2v35.1L345,210.3h-17.2v66.3H327.9z"/>
	</g>
	<g>
		<polygon class="st1" points="180.3,365.4 180.3,381.5 200.1,381.5 200.1,431.7 218.5,431.7 218.5,381.5 238.4,381.5 238.4,365.4 
					"/>
	</g>
</g>
</svg>
