<svg width="70" height="70" viewBox="0 0 70 70" fill="none" xmlns="http://www.w3.org/2000/svg">
<path opacity="0.9" d="M68.7143 31.8815C67.5826 31.8815 66.5938 32.4852 66.0514 33.3907C65.3554 33.8812 64.4161 34.183 63.3806 34.183C61.8143 34.183 60.3612 33.5429 59.8578 32.4956C59.798 32.3694 59.7472 32.2432 59.6952 32.1157C59.1579 27.41 57.3002 23.1012 54.4992 19.5675C54.4472 19.4504 54.3886 19.3229 54.3457 19.1967C53.958 18.0922 54.5252 16.6116 55.6414 15.5031C56.3764 14.7668 57.2467 14.3153 58.0858 14.1774C59.1109 14.422 60.2349 14.1592 61.035 13.3565C62.2487 12.1466 57.8516 7.74384 56.6339 8.95916C55.8391 9.76056 55.5672 10.8873 55.8209 11.9111C55.6778 12.7412 55.2238 13.6219 54.4927 14.3544C53.383 15.4681 51.9026 16.0418 50.8033 15.6541C50.6732 15.6033 50.5444 15.5539 50.4196 15.4941C46.8878 12.6982 42.5816 10.8403 37.8722 10.3017C37.7513 10.2536 37.6277 10.2041 37.5054 10.1456C36.4556 9.64992 35.8116 8.19409 35.8116 6.61721C35.8116 5.57511 36.1121 4.64749 36.6026 3.95017C37.5002 3.40376 38.109 2.42018 38.109 1.29092C38.109 -0.430308 31.888 -0.430308 31.888 1.29092C31.888 2.41888 32.4942 3.40376 33.3944 3.95017C33.8861 4.64752 34.1853 5.57511 34.1853 6.61721C34.1853 8.1875 33.5479 9.63813 32.5007 10.1456C32.3758 10.2054 32.2483 10.2497 32.1234 10.3017C27.4103 10.8468 23.1042 12.7034 19.5734 15.4981C19.4524 15.554 19.3288 15.6112 19.204 15.6542C18.0982 16.0419 16.6204 15.472 15.5056 14.3545C14.7732 13.6272 14.3231 12.753 14.1774 11.9125C14.4363 10.8899 14.1644 9.76719 13.3604 8.96186C12.1506 7.75323 7.74818 12.1454 8.96474 13.3619C9.76609 14.1672 10.8875 14.4365 11.9113 14.1789C12.7491 14.3246 13.6246 14.776 14.3596 15.5072C15.468 16.6209 16.0469 18.0962 15.6553 19.1941C15.6072 19.3268 15.5487 19.453 15.4927 19.5766C12.701 23.1153 10.8433 27.4151 10.3007 32.1275C10.2565 32.2511 10.2058 32.372 10.1472 32.4918C9.64768 33.5469 8.19586 34.1922 6.61543 34.1922C5.58642 34.1922 4.64194 33.8877 3.95247 33.4012C3.40739 32.4983 2.41999 31.8946 1.28691 31.8946C-0.42897 31.8946 -0.42897 38.1134 1.28691 38.1134C2.42129 38.1134 3.41129 37.5124 3.95247 36.6069C4.64194 36.1177 5.58639 35.8107 6.61543 35.8107C8.19084 35.8107 9.64002 36.4508 10.1472 37.5046C10.2032 37.6243 10.2552 37.757 10.3007 37.878C10.8432 42.5877 12.7009 46.8951 15.5044 50.4288C15.5564 50.5524 15.6149 50.6734 15.6579 50.8035C16.0482 51.9016 15.4771 53.3847 14.3596 54.4984C13.6298 55.2348 12.7543 55.681 11.9178 55.8242C10.8927 55.5705 9.7687 55.8424 8.96733 56.6386C7.74969 57.855 12.1494 62.2562 13.3683 61.0386C14.1671 60.2398 14.439 59.1144 14.1814 58.0879C14.3245 57.254 14.7785 56.3758 15.5096 55.6459C16.6232 54.5271 18.0984 53.9585 19.2003 54.3476C19.3291 54.3905 19.4592 54.4477 19.5828 54.5037C23.1136 57.3034 27.4207 59.1611 32.1328 59.7C32.2563 59.7429 32.3773 59.795 32.497 59.8509C33.5495 60.3531 34.1947 61.8024 34.1947 63.3766C34.1947 64.4161 33.8968 65.3555 33.4038 66.045C32.5035 66.5914 31.8934 67.5763 31.8934 68.712C31.8934 70.4293 38.1171 70.4293 38.1171 68.712C38.1171 67.5776 37.5135 66.5914 36.6081 66.045C36.1176 65.3555 35.8197 64.4148 35.8197 63.3766C35.8197 61.8076 36.4572 60.3583 37.507 59.8576C37.6306 59.8003 37.7568 59.7444 37.8804 59.6976C42.5898 59.1563 46.8955 57.2985 50.4303 54.4976C50.5513 54.4416 50.6762 54.3909 50.8076 54.3479C51.9003 53.9511 53.3873 54.5275 54.5009 55.6385C55.2307 56.3749 55.6835 57.2518 55.8266 58.087C55.5716 59.1109 55.8409 60.2337 56.6435 61.0299C57.856 62.2476 62.2608 57.8502 61.0432 56.6375C60.2419 55.8335 59.1153 55.5668 58.0928 55.8205C57.2576 55.6735 56.3795 55.2273 55.6484 54.4922C54.5374 53.3825 53.9624 51.8993 54.3488 50.8013C54.3995 50.6712 54.4528 50.5437 54.5088 50.4188C57.3031 46.8867 59.1622 42.5763 59.7047 37.8679C59.749 37.7469 59.7997 37.6233 59.8557 37.5036C60.3578 36.4498 61.807 35.8097 63.3825 35.8097C64.418 35.8097 65.3572 36.1103 66.0532 36.6008C66.5957 37.5036 67.5831 38.1073 68.7162 38.1073C70.4282 38.1034 70.4282 31.8822 68.7149 31.8822L68.7143 31.8815ZM36.1721 38.1849C34.6136 38.8315 32.8184 38.0913 32.1757 36.5288C31.5266 34.9663 32.2707 33.1696 33.8318 32.5244C35.3942 31.8778 37.1881 32.622 37.8348 34.1819C38.4788 35.7444 37.7385 37.5385 36.1722 38.1852L36.1721 38.1849ZM19.631 31.3313C18.0687 31.9779 16.2761 31.2364 15.6307 29.6751C14.9802 28.1088 15.7243 26.3186 17.288 25.6708C18.853 25.0242 20.6443 25.7658 21.2911 27.3283C21.9363 28.8895 21.1948 30.6785 19.6311 31.3316L19.631 31.3313ZM29.3203 54.7271C27.7579 55.3776 25.9693 54.6335 25.3172 53.071C24.6733 51.5059 25.4161 49.7118 26.9772 49.0666C28.5396 48.4213 30.3308 49.1655 30.9802 50.7267C31.6268 52.2853 30.8827 54.0806 29.3203 54.7274V54.7271ZM42.7288 20.922C41.1677 21.5673 39.3778 20.8244 38.7258 19.2619C38.0844 17.7007 38.8259 15.9117 40.387 15.2586C41.9494 14.612 43.738 15.3575 44.3901 16.9161C45.034 18.4825 44.2925 20.2753 42.7288 20.9218V20.922ZM52.7185 45.0346C51.1561 45.6838 49.3648 44.9435 48.7154 43.3797C48.0689 41.8094 48.8104 40.0205 50.3728 39.3764C51.9352 38.7298 53.7291 39.47 54.3758 41.0325C55.0211 42.5963 54.2848 44.3904 52.7185 45.0345V45.0346Z" fill="white"/>
</svg>
