<?xml version="1.0" encoding="utf-8"?>
<!-- Generator: Adobe Illustrator 26.0.2, SVG Export Plug-In . SVG Version: 6.00 Build 0)  -->
<svg version="1.1" id="Layer_1" xmlns="http://www.w3.org/2000/svg" xmlns:xlink="http://www.w3.org/1999/xlink" x="0px" y="0px"
	 viewBox="0 0 564 564" style="enable-background:new 0 0 564 564;" xml:space="preserve">
<style type="text/css">
	.st0{fill:#05C3DD;}
	.st1{fill:#0057B7;}
</style>
<g>
	<path class="st0" d="M451.9,196.3c0,3.5,1.4,8.9,1.4,8.9s4.3,4.5,3,6.7c-1.4,2.2-5.3,4.1-5.3,4.1l-7.1,3.5c0,0-6.7,3-6.9,4.7
		c-0.2,1.8-0.2,9.7-0.2,9.7l-2.8,4.3v11.1c0,0-2.5,11.1-3.4,8.6s-2.2-8.3-2.2-8.3l-3.7-0.3v7.7l5.8,6.2c0,0,6.8,4.9,5.8,8.3
		c-0.9,3.4-13.8,14.5-13.8,14.5s-8.9,8.9-8.9,11.1s-8.3,10.1-8.3,10.1s-8,9.8-1.8,20.9s9.2,16.3,9.2,16.3l4.4,7.1
		c0,0,1.4,1.8,1,7.4c-0.4,5.5-1.4,7.8-1.4,7.8s-2.9,4.3-5.9,1.4c-3.1-2.9-8-9.8-8-9.8l-8.6-10.9c0,0-0.4-4.5,0.2-7.2
		s-7.2-10-7.2-10s-5.1-3.3-10.9,2c-5.7,5.3-6.8-1.6-6.8-1.6s-2.3-3.9-9-2.9c-6.8,1-11.1,2.3-11.1,2.3s-12.1-1.2-12.7,0.2
		s1.4,2.3,1.4,2.3s4.5,1,2.7,3.7s-5.9,7.6-9.2,6.8c-3.3-0.8-11.3-4.5-11.3-4.5l-10-0.8c0,0-6.8-1.2-17.6,9.2
		c-10.8,10.4-12.7,8.6-12.7,11.5s1.4,8,1.4,9s-0.2,4.1-1.6,4.1s-2.9-1.4-2.9-1.4l-5.5-1c0,0-7.8-2.9-7.8-7s-1.4-6.3-1.4-6.3
		s-5.7-6.1-5.7-6.8s-3.1-8.8-3.1-8.8s-8.6-8.2-13.3-3.7c-3.4,3.2-3.7,3.3-3.6,3.1c-0.6,0.9-3,3.8-7.4-1c-5.1-5.5-4.1-3.9-4.7-7.8
		c-0.6-3.9-7.6-11.7-7.6-11.7s-4.7-3.9-9.2-4.5s-8.2,1-8.4,3.1c-0.2,2-9,0.4-9,0.4s-16-3.9-22.5-8.6c-6.6-4.7-13.7-7.6-13.7-7.6
		l-4.9-4.1l-12.3-2.3l-1.4-3.9c0,0-11.7-14.1-14.8-16.1c-1.8-0.7-4.2-1.4-5.1-11.4c-3.9-5.4-4.3-7-4.3-7v-6.3l-3-14.2
		c0,0-3.3-7-2.8-9.7s0-7.4,0-7.4s-0.7-4.8,1.2-6.5c1.9-1.7,3-11.6,3-11.6s-1-5.5,0.2-6.3s4.4-6.5,4.4-6.5s6.5-16.8,6.5-18.2
		s1.6-21.8,1.6-21.8s1.7-2.4,3.2-0.3c1.4,2.1,6.3,3.3,6.3,3.3s-4.1,12,0,10.6c4.1-1.4,3-9,3-9s-2.2-3.6-1.9-4.6s0.9-2.9,0.9-2.9
		s43.7,18.7,161.9,22.4c0.7-2.9,1.4-2.4,1.4-2.4s2.1,0.8,2.1,1.5s0.5,3.3,0.5,3.3l4.3,1.1h7.6l7,4.8l5.7-1.6l6.7,1.6
		c0,0,5.1-5.4,7.5-4.3c2.4,1.1,22.1,12.6,22.1,12.6v1.3h3v4.8h4.6v2.4c0,0,6.7-0.3,7.3,1.6c0.5,1.9,3.5,18,3.5,20.4
		s-3.8,8.1-3.8,8.1s0.8,4.6,3.8,4c3-0.5,8.3-6.7,8.3-6.7s12.6-4.3,12.6-7s-1.6-6.7-1.6-6.7s0.5-3,6.5-3c5.9,0,7.5-0.3,7.5-0.3
		l4.8-10c0,0,3-5.4,12.4-7.3s13.1-2.4,14.3-4.4c1.2-2,2.7-7.9,3.2-12.8c0.5-4.9,7.4-8.9,7.4-8.9s5.9-4,6.8,4.6
		c1,8.6,8.5,12.4,8.5,12.4l-7.5,7.5C462,184.8,451.9,192.7,451.9,196.3z M146.2,384.5c0-0.5-0.4-1-1-1.1l-1.7-0.4
		c-0.2,0-0.4,0-0.6,0l-1.7,0.6c-0.3,0.1-0.6,0.4-0.7,0.7l-0.5,1.5c0,0.1-0.1,0.2-0.1,0.3c0-0.1,0-0.1,0-0.2l-0.1-0.3
		c-0.2-0.5-0.7-0.9-1.2-0.9h-1c-0.4,0-0.7,0.2-1,0.6l-0.9,1.4c-0.2,0.4-0.3,0.8-0.1,1.2c0.2,0.4,0.6,0.6,1,0.7l1,0.1
		c0.4,0,0.8-0.1,1-0.4l1-1.2c0.2-0.2,0.2-0.4,0.3-0.7c0,0.4,0.3,0.7,0.6,0.9l2.4,1.3c0.2,0.1,0.4,0.1,0.6,0.1l0.9-0.1
		c0.4,0,0.8-0.3,1-0.7l0.8-1.6c0.1-0.2,0.1-0.4,0.1-0.7L146.2,384.5z M159.6,392.8l-0.9-0.6l-0.6-1.4l-0.7-1.6
		c-0.3-0.6-0.9-0.8-1.5-0.6l-2.5,1c-0.3,0.1-0.5,0.3-0.6,0.6l-0.4,0.8c-0.2,0.3-0.1,0.8,0,1.1l1.3,2.4c0.2,0.4,0.6,0.6,1.1,0.6h1
		h0.1l0.1,0.1c0.2,0.2,0.5,0.3,0.8,0.4c0,0,0,0,0.1,0h1.5c0.4,0,0.7-0.2,1-0.5l0.5-0.6c0.2-0.3,0.3-0.6,0.2-0.9
		C160,393.3,159.8,393,159.6,392.8z M182.8,411.3l-1.3-1l-0.5-1.6c0-0.1-0.1-0.1-0.1-0.2l-0.6-1.1c-0.1-0.2-0.2-0.3-0.3-0.4l-1.3-1
		l-0.1-0.1l-4.4-2.5c-0.4-0.2-0.9-0.2-1.3,0l-0.7,0.5c-0.3,0.2-0.5,0.6-0.5,1v0.8c0,0.3,0.1,0.5,0.2,0.8l0.1,0.1l-0.5,0.6l-0.7,0.2
		c-0.5,0.2-0.8,0.6-0.8,1.1v1.1c0,0.3,0.1,0.6,0.3,0.9l0.6,0.6l0.3,1.8l-0.2,0.7c0,0.1-0.1,0.2-0.1,0.4v1.9c0,0.4,0.1,0.7,0.4,0.9
		l1.4,1.2c0.2,0.1,0.3,0.2,0.6,0.3l0.7,0.1h0.1c0.4,0,0.7-0.1,1-0.4l1.1-1.1l0.9-1.1l0.6-0.3h0.1c0.3,0.1,0.6,0.2,0.8,0.1l1.8-0.5
		c0.1,0,0.3-0.1,0.4-0.2l1.7-1.2c0.2-0.2,0.4-0.4,0.5-0.6l0.2-0.5C183.4,412.2,183.2,411.6,182.8,411.3z M171.8,402.5l1.6-0.6
		c0.4-0.2,0.7-0.6,0.7-1l0.1-0.8c0-0.4-0.2-0.8-0.5-1.1l-1.7-1.3c-0.1-0.1-0.2-0.1-0.3-0.2l-1.7-0.6l-1.8-1.1
		c-0.1,0-0.1-0.1-0.2-0.1c0-0.1-0.1-0.2-0.1-0.4c-0.2-0.3-0.5-0.5-0.8-0.6l-2.5-0.5c-0.2,0-0.4,0-0.7,0.1l-1.4-0.4
		c-0.5-0.1-1,0-1.3,0.4l-0.6,0.7c-0.2,0.3-0.3,0.7-0.2,1.1s0.4,0.7,0.7,0.8l1.3,0.5v0.1v0.5c0,0.2,0,0.4,0.1,0.5l0.7,1.7
		c0.2,0.6,0.8,0.9,1.4,0.7l1.3-0.4c0.3-0.1,0.5-0.3,0.7-0.5l0.8,1.3c0.1,0.1,0.2,0.2,0.3,0.3l0.9,0.7c0.2,0.1,0.4,0.2,0.6,0.2
		c0.1,0,0.2,0,0.2,0l2-0.3C171.6,402.5,171.7,402.5,171.8,402.5z M190.3,380.1l-2.8-1.9l-1.9-4.2l-2.3-3.3l-1.5-1.8l-2.3-1.7
		l-0.2-1.5l-0.5-0.7l-0.9-0.3l-1.2,0.7l-0.8,1.5l-1,1.2h-0.4l-2.9-2.4l-1.2-2.2l-0.9-0.8l-2.9-0.3l-1-0.3v-41.3l-1.8-0.9l-3.1-1.5
		l-3.8,0.7l-5.6-0.4l-0.7-0.9l-4.2-1l-4.5,0.4l-2.4-1.6l-3.7-0.4l-3.9-2.1l-2.4,0.4l-1.9,1.7h-2.7l-2.7,0.9l-2.2,1.5l-2.4,0.6
		l-1.4,1.3l-2.5,3.8l-5.2,1.1l-0.8,1.5l0.3,1.2l2.2,0.9l2.9,2l0.7,1.7l0.9,0.4l3.4,0.3l0.7,2.5l-1.1,0.3l-0.5-0.4l-2.3-0.4
		l-3.8,0.3l-6.5,3.2l-0.8,0.7l0.5,0.6l2.1,1l1.3,2.9l1.5,0.8l2.5-0.3l1.4-0.4l0.9,0.4l1.9,0.2l2.7-1.4l1.4-0.2l0.3,1l-0.8,1
		l0.5,1.2l0.2,2.2l-0.8,0.6l-2.6,0.4l-1.1,1.3l-1.4,0.3l-1.4-0.9l-1,0.2l-1.8,3.6l-1.2,1.6l-0.3,1.8l0.5,1.8l1.1,1.3l0.5,2.7
		l0.7,0.5l1.2,1.9l2.1,0.3l0.7-0.6l1.3-0.5l1,0.9l0.5,1.2l-0.4,1.5l0.5,2.2l1,0.3l0.9-0.6l1.7-0.4l1.5,0.7l1,1.7l0.6-0.3v-0.6
		l-0.4-1.1h0.8l0.8,0.7l1.9-0.5l0.5,0.4l-0.8,1.1l-0.4,3.2l-1.9,2.5l-3.8,3.5l-7.6,5.7l-8.4,5.2l-6.7,3.6l-5.7,1.8l-4.7,2.1
		l-4.8,0.8l-3.8,1.6l8-0.5l1.8-1.1l3-0.5l14.9-6.9l19.3-11.2l1.9-2.9l1-0.5l0.9-1.9l3.7-3.3l2.7-3.1v-0.6l-1.4-0.3l-0.3-0.4l0.3-1
		l1.8-2.3l1.5-1.1l1.2-2.3l1.6-2l1.8-1.2l0.8,0.3l0.8,0.6l-0.5,0.6l-1.6,0.3l-2.1,4.8l0.5,0.8l-0.4,0.5l-0.2,0.9l0.8,0.3l1.6-0.4
		l3.3-2.6l3.2-0.4l1.3-0.7l1.2-1.1l3-0.2l3.1,1.2l4.8,0.5l3.6,1.2l5.1,3.6l1.7,1.7l1.6,1h3.3l1,0.6l2.2,2.2l0.2,0.8l-0.3,0.6
		l-0.5,0.2l-1.5-0.2l-0.9-0.5l-0.9,0.3l-0.3,1.1l0.2,2l1.3,1.9l0.6,1.3l0.7,0.6l0.6-0.1l1.6-2.2l0.7-0.3l0.6,0.2l0.3,1.8l1,2.4
		l0.9,0.8l1.1,0.8l0.5,1l0.8,0.9l1.2-0.3l0.5-0.5l0.2-3.5l0.3-1.8L190.3,380.1z M408.3,382.2l-0.4,0.3l-0.1,0.3l0.2,0.5l-0.1,0.3
		l-0.8,0.5l-0.9,0.3l0.5,1l0.6,0.2l0.3,0.9l0.3,0.3l-0.5,0.6v0.5l0.1,0.4l-0.3,0.5l-0.1,0.7l0.6,0.2l-0.1,0.2l-0.4,0.2l-0.1,0.2
		v0.5l0.3,0.3h0.2l-0.1-0.3l0.2-0.2l0.3,0.2l0.8,0.1l0.6-0.5l0.3,0.1l0.6-0.1l0.7,0.6l0.5,0.1l0.1-0.1l0.2-0.3h0.6h0.5l0.7-0.4
		l0.6-0.3h0.4l0.8,0.4l0.7-0.3l0.7,0.3l1.2-0.4h0.6l1.2,0.8l0.4-0.5l0.6-0.2l0.5,0.6l0.7,0.2l0.1-0.3l0.4-0.3l0.5,0.3l0.2,0.3
		l1.2-0.6l0.5,0.2l0.4-0.4l0.2-0.1l0.4,0.2l0.9-0.1l0.5-0.2l0.4-0.3l0.3-0.1l0.1-0.3l-0.1-0.3l0.6-0.2l0.3-1l0.7-0.8l0.3-0.1
		l0.3-0.1l0.4-0.2l0.5,0.1l0.3-0.2l0.3-0.3l-0.3-0.4l-0.2-0.4v-0.4v-0.4l-0.1-0.2l0.3-0.3v-0.3l-0.4,0.1l-0.3,0.3l-0.5-0.1
		l-0.3-0.3l-0.3,0.2l-0.1-0.1l-0.3-0.3v-0.2l-0.3-0.1l-0.4,0.2l-0.3-0.4l-0.6-0.1l-0.4-0.2l-0.3,0.1l-1-0.2l-0.1,0.2h-0.3l-0.2-0.2
		l-1.3-0.3l-0.2,0.1l-0.5,0.2l-0.2-0.3l-0.5,0.1l-0.7-0.2l-0.2,0.1l-1.7-0.4l-0.6,0.1l-0.3,0.3l-1-0.3l-0.5-0.1l-0.3,0.1l-0.7-0.2
		l-0.8,0.1l-0.4,0.1l-0.1,0.2h-0.5l-0.7-0.3l-0.6,0.1l-0.6-0.1l-0.7,0.1l-1-0.1l-0.6-0.3l-1.1-0.1L408.3,382.2z"/>
</g>
<g>
	<g>
		<path class="st1" d="M113.3,246.7l10.1-9.5c2.7,3.3,5.3,5.2,8.9,5.2c3.9,0,6.4-2.7,6.4-7.9v-35.7h15.6v35.8
			c0,7.1-1.8,12.1-5.6,15.9c-3.7,3.7-9,5.7-15.5,5.7C123.3,256.2,117.3,252.1,113.3,246.7z"/>
	</g>
	<g>
		<path class="st1" d="M162.8,230.5v-31.7h15.8v31.4c0,8.1,4.1,12,10.4,12c6.4,0,10.5-3.7,10.5-11.6v-31.8h15.8v31.3
			c0,18.1-10.4,26.2-26.5,26.2C172.9,256.3,162.8,248.1,162.8,230.5z"/>
	</g>
	<g>
		<path class="st1" d="M224.6,198.8h14.6l23.2,29.8v-29.8h15.5v56.5h-13.6l-24.2-31v31h-15.5L224.6,198.8L224.6,198.8z"/>
	</g>
	<g>
		<path class="st1" d="M301.7,212.5h-16.9v-13.7h49.4v13.7h-16.9v42.7h-15.6V212.5z"/>
	</g>
	<g>
		<path class="st1" d="M336.8,227.2V227c0-16.2,13.1-29.4,30.5-29.4s30.3,13,30.3,29.2v0.2c0,16.2-13.1,29.4-30.5,29.4
			C349.8,256.4,336.8,243.4,336.8,227.2z M381.6,227.2V227c0-8.2-5.8-15.2-14.4-15.2s-14.4,6.9-14.4,15.1v0.2
			c0,8.1,5.9,15.2,14.5,15.2C375.9,242.3,381.6,235.3,381.6,227.2z"/>
	</g>
	<g>
		<path class="st1" d="M401.1,246.9l8.7-10.4c5.6,4.4,11.8,6.8,18.3,6.8c4.3,0,6.5-1.5,6.5-3.9v-0.2c0-2.4-1.9-3.6-9.6-5.5
			c-12-2.7-21.3-6.1-21.3-17.7v-0.2c0-10.5,8.3-18.1,21.9-18.1c9.6,0,17.1,2.6,23.2,7.5l-7.8,11.1c-5.2-3.7-10.8-5.6-15.8-5.6
			c-3.8,0-5.6,1.5-5.6,3.6v0.2c0,2.6,1.9,3.7,9.8,5.5c12.9,2.8,21,7,21,17.6v0.2c0,11.5-9.1,18.4-22.8,18.4
			C417.5,256.2,408.1,253.1,401.1,246.9z"/>
	</g>
	<g>
		<path class="st1" d="M23,320.2l8.7-10.4c5.6,4.4,11.8,6.8,18.3,6.8c4.3,0,6.5-1.5,6.5-3.9v-0.2c0-2.4-1.9-3.6-9.6-5.5
			c-12-2.7-21.3-6.1-21.3-17.7v-0.2c0-10.5,8.3-18.1,21.9-18.1c9.6,0,17.1,2.6,23.2,7.5l-7.8,11.1c-5.2-3.7-10.8-5.6-15.8-5.6
			c-3.8,0-5.6,1.5-5.6,3.6v0.2c0,2.6,1.9,3.7,9.8,5.5c12.9,2.8,21,7,21,17.6v0.2c0,11.5-9.1,18.4-22.8,18.4
			C39.4,329.5,30,326.4,23,320.2z"/>
	</g>
	<g>
		<path class="st1" d="M79.5,279.2h13.7v49.4H79.5V279.2z M88.7,264.4l12.8,3.9L91,275.8h-9.9L88.7,264.4z"/>
	</g>
	<g>
		<path class="st1" d="M122.4,272.1h24.3c14.2,0,23.4,7.3,23.4,19.8v0.2c0,13.4-10.2,20.4-24.2,20.4h-7.8v16.1h-15.6L122.4,272.1
			L122.4,272.1z M145.6,300.2c5.5,0,9-3,9-7.4v-0.2c0-4.8-3.5-7.3-9-7.3h-7.4v14.9H145.6z"/>
	</g>
	<g>
		<path class="st1" d="M174.8,300.5v-0.2c0-16.2,13.1-29.4,30.5-29.4s30.3,13,30.3,29.2v0.2c0,16.2-13.1,29.4-30.5,29.4
			S174.8,316.7,174.8,300.5z M219.6,300.5v-0.2c0-8.2-5.8-15.2-14.4-15.2c-8.6,0-14.4,6.9-14.4,15.1v0.2c0,8.1,5.9,15.2,14.5,15.2
			C213.9,315.6,219.6,308.6,219.6,300.5z"/>
	</g>
	<g>
		<path class="st1" d="M243.7,272.1h21.9c20.1,0,31.8,11.6,31.8,27.9v0.2c0,16.3-11.9,28.4-32.1,28.4h-21.5L243.7,272.1
			L243.7,272.1z M259.4,285.9v28.8h6.4c9.4,0,15.6-5.2,15.6-14.3v-0.2c0-9-6.2-14.4-15.6-14.4h-6.4V285.9z"/>
	</g>
	<g>
		<path class="st1" d="M305.5,272.1h45.4v13.2H321v8.6h27.1v12.3H321v9h30.3v13.3h-45.8V272.1z"/>
	</g>
	<g>
		<path class="st1" d="M359.4,272.1h16.5l13.5,21.9l13.5-21.9h16.5v56.5h-15.6v-32.4l-14.4,22.1h-0.3l-14.4-22v32.3h-15.3
			L359.4,272.1L359.4,272.1z"/>
	</g>
	<g>
		<path class="st1" d="M427.6,300.5v-0.2c0-16.2,13.1-29.4,30.5-29.4s30.3,13,30.3,29.2v0.2c0,16.2-13.1,29.4-30.5,29.4
			S427.6,316.7,427.6,300.5z M472.3,300.5v-0.2c0-8.2-5.8-15.2-14.4-15.2s-14.4,6.9-14.4,15.1v0.2c0,8.1,5.9,15.2,14.5,15.2
			S472.3,308.6,472.3,300.5z"/>
	</g>
	<g>
		<path class="st1" d="M491.8,320.2l8.7-10.4c5.6,4.4,11.8,6.8,18.3,6.8c4.3,0,6.5-1.5,6.5-3.9v-0.2c0-2.4-1.9-3.6-9.6-5.5
			c-12-2.7-21.3-6.1-21.3-17.7v-0.2c0-10.5,8.3-18.1,21.9-18.1c9.6,0,17.1,2.6,23.2,7.5l-7.8,11.1c-5.2-3.7-10.8-5.6-15.8-5.6
			c-3.8,0-5.6,1.5-5.6,3.6v0.2c0,2.6,1.9,3.7,9.8,5.5c12.9,2.8,21,7,21,17.6v0.2c0,11.5-9.1,18.4-22.8,18.4
			C508.2,329.5,498.8,326.4,491.8,320.2z"/>
	</g>
</g>
</svg>
