<?xml version="1.0" encoding="utf-8"?>
<!-- Generator: Adobe Illustrator 26.0.2, SVG Export Plug-In . SVG Version: 6.00 Build 0)  -->
<svg version="1.1" id="Layer_1" xmlns="http://www.w3.org/2000/svg" xmlns:xlink="http://www.w3.org/1999/xlink" x="0px" y="0px"
	 viewBox="0 0 565 564" style="enable-background:new 0 0 565 564;" xml:space="preserve">
<style type="text/css">
	.st0{fill:#05C3DD;}
	.st1{fill:#0057B7;}
</style>
<g>
	<path class="st0" d="M461,196.3c0,3.5,1.4,8.9,1.4,8.9s4.3,4.5,3,6.7S460,216,460,216l-7.1,3.5c0,0-6.7,3-6.9,4.7
		c-0.2,1.8-0.2,9.7-0.2,9.7l-2.8,4.3v11.1c0,0-2.5,11.1-3.4,8.6c-0.9-2.5-2.2-8.3-2.2-8.3l-3.7-0.3v7.7l5.8,6.2
		c0,0,6.8,4.9,5.8,8.3c-0.9,3.4-13.8,14.5-13.8,14.5s-8.9,8.9-8.9,11.1s-8.3,10.1-8.3,10.1s-8,9.8-1.8,20.9
		c6.2,11.1,9.2,16.3,9.2,16.3l4.4,7.1c0,0,1.4,1.8,1,7.4c-0.4,5.5-1.4,7.8-1.4,7.8s-2.9,4.3-5.9,1.4s-8-9.8-8-9.8l-8.6-10.9
		c0,0-0.4-4.5,0.2-7.2s-7.2-10-7.2-10s-5.1-3.3-10.9,2c-5.7,5.3-6.8-1.6-6.8-1.6s-2.3-3.9-9-2.9c-6.8,1-11.1,2.3-11.1,2.3
		s-12.1-1.2-12.7,0.2s1.4,2.3,1.4,2.3s4.5,1,2.7,3.7c-1.8,2.7-5.9,7.6-9.2,6.8c-3.3-0.8-11.3-4.5-11.3-4.5l-10-0.8
		c0,0-6.8-1.2-17.6,9.2c-10.8,10.4-12.7,8.6-12.7,11.5c0,2.9,1.4,8,1.4,9c0,1-0.2,4.1-1.6,4.1c-1.4,0-2.9-1.4-2.9-1.4l-5.5-1
		c0,0-7.8-2.9-7.8-7s-1.4-6.3-1.4-6.3s-5.7-6.1-5.7-6.8c0-0.6-3.1-8.8-3.1-8.8s-8.6-8.2-13.3-3.7c-3.4,3.2-3.7,3.3-3.6,3.1
		c-0.6,0.9-3,3.8-7.4-1c-5.1-5.5-4.1-3.9-4.7-7.8c-0.6-3.9-7.6-11.7-7.6-11.7s-4.7-3.9-9.2-4.5c-4.5-0.6-8.2,1-8.4,3.1
		c-0.2,2-9,0.4-9,0.4s-16-3.9-22.5-8.6c-6.6-4.7-13.7-7.6-13.7-7.6l-4.9-4.1l-12.3-2.3l-1.4-3.9c0,0-11.7-14.1-14.8-16.1
		c-1.8-0.7-4.2-1.4-5.1-11.4c-3.9-5.4-4.3-7-4.3-7v-6.3l-3-14.2c0,0-3.3-7-2.8-9.7c0.5-2.7,0-7.4,0-7.4s-0.7-4.8,1.2-6.5
		c1.9-1.7,3-11.6,3-11.6s-1-5.5,0.2-6.3c1.1-0.8,4.4-6.5,4.4-6.5s6.5-16.8,6.5-18.2s1.6-21.8,1.6-21.8s1.7-2.4,3.2-0.3
		c1.4,2.1,6.3,3.3,6.3,3.3s-4.1,12,0,10.6c4.1-1.4,3-9,3-9s-2.2-3.6-1.9-4.6c0.3-1,0.9-2.9,0.9-2.9s43.7,18.7,161.9,22.4
		c0.7-2.9,1.4-2.4,1.4-2.4s2.1,0.8,2.1,1.5c0,0.7,0.5,3.3,0.5,3.3l4.3,1.1h7.6l7,4.8l5.7-1.6l6.7,1.6c0,0,5.1-5.4,7.5-4.3
		c2.4,1.1,22.1,12.6,22.1,12.6v1.3h3v4.8h4.6v2.4c0,0,6.7-0.3,7.3,1.6c0.5,1.9,3.5,18,3.5,20.4c0,2.4-3.8,8.1-3.8,8.1
		s0.8,4.6,3.8,4c3-0.5,8.3-6.7,8.3-6.7s12.6-4.3,12.6-7s-1.6-6.7-1.6-6.7s0.5-3,6.5-3c5.9,0,7.5-0.3,7.5-0.3l4.8-10
		c0,0,3-5.4,12.4-7.3c9.4-1.9,13.1-2.4,14.3-4.4c1.2-2,2.7-7.9,3.2-12.8s7.4-8.9,7.4-8.9s5.9-4,6.8,4.6c1,8.6,8.5,12.4,8.5,12.4
		l-7.5,7.5C471.1,184.8,461,192.7,461,196.3z M155.3,384.5c0-0.5-0.4-1-1-1.1l-1.7-0.4c-0.2,0-0.4,0-0.6,0l-1.7,0.6
		c-0.3,0.1-0.6,0.4-0.7,0.7l-0.5,1.5c0,0.1-0.1,0.2-0.1,0.3c0-0.1,0-0.1,0-0.2l-0.1-0.3c-0.2-0.5-0.7-0.9-1.2-0.9l-1,0
		c-0.4,0-0.7,0.2-1,0.6l-0.9,1.4c-0.2,0.4-0.3,0.8-0.1,1.2c0.2,0.4,0.6,0.6,1,0.7l1,0.1c0.4,0,0.8-0.1,1-0.4l1-1.2
		c0.2-0.2,0.2-0.4,0.3-0.7c0,0.4,0.3,0.7,0.6,0.9l2.4,1.3c0.2,0.1,0.4,0.1,0.6,0.1l0.9-0.1c0.4,0,0.8-0.3,1-0.7l0.8-1.6
		c0.1-0.2,0.1-0.4,0.1-0.7L155.3,384.5z M168.7,392.8l-0.9-0.6l-0.6-1.4l-0.7-1.6c-0.3-0.6-0.9-0.8-1.5-0.6l-2.5,1
		c-0.3,0.1-0.5,0.3-0.6,0.6l-0.4,0.8c-0.2,0.3-0.1,0.8,0,1.1l1.3,2.4c0.2,0.4,0.6,0.6,1.1,0.6l1,0c0,0,0.1,0,0.1,0l0.1,0.1
		c0.2,0.2,0.5,0.3,0.8,0.4c0,0,0,0,0.1,0l1.5,0c0.4,0,0.7-0.2,1-0.5l0.5-0.6c0.2-0.3,0.3-0.6,0.2-0.9
		C169.1,393.3,168.9,393,168.7,392.8z M191.9,411.3l-1.3-1l-0.5-1.6c0-0.1-0.1-0.1-0.1-0.2l-0.6-1.1c-0.1-0.2-0.2-0.3-0.3-0.4
		l-1.3-1c0,0-0.1-0.1-0.1-0.1l-4.4-2.5c-0.4-0.2-0.9-0.2-1.3,0l-0.7,0.5c-0.3,0.2-0.5,0.6-0.5,1l0,0.8c0,0.3,0.1,0.5,0.2,0.8
		l0.1,0.1l-0.5,0.6l-0.7,0.2c-0.5,0.2-0.8,0.6-0.8,1.1l0,1.1c0,0.3,0.1,0.6,0.3,0.9l0.6,0.6l0.3,1.8l-0.2,0.7
		c0,0.1-0.1,0.2-0.1,0.4l0,1.9c0,0.4,0.1,0.7,0.4,0.9l1.4,1.2c0.2,0.1,0.3,0.2,0.6,0.3l0.7,0.1c0,0,0.1,0,0.1,0
		c0.4,0,0.7-0.1,1-0.4l1.1-1.1l0.9-1.1l0.6-0.3l0.1,0c0.3,0.1,0.6,0.2,0.8,0.1l1.8-0.5c0.1,0,0.3-0.1,0.4-0.2l1.7-1.2
		c0.2-0.2,0.4-0.4,0.5-0.6l0.2-0.5C192.5,412.2,192.3,411.6,191.9,411.3z M180.9,402.5l1.6-0.6c0.4-0.2,0.7-0.6,0.7-1l0.1-0.8
		c0-0.4-0.2-0.8-0.5-1.1l-1.7-1.3c-0.1-0.1-0.2-0.1-0.3-0.2L179,397l-1.8-1.1c-0.1,0-0.1-0.1-0.2-0.1c0-0.1-0.1-0.2-0.1-0.4
		c-0.2-0.3-0.5-0.5-0.8-0.6l-2.5-0.5c-0.2,0-0.4,0-0.7,0.1l-1.4-0.4c-0.5-0.1-1,0-1.3,0.4l-0.6,0.7c-0.2,0.3-0.3,0.7-0.2,1.1
		c0.1,0.4,0.4,0.7,0.7,0.8l1.3,0.5c0,0,0,0.1,0,0.1l0,0.5c0,0.2,0,0.4,0.1,0.5l0.7,1.7c0.2,0.6,0.8,0.9,1.4,0.7l1.3-0.4
		c0.3-0.1,0.5-0.3,0.7-0.5l0.8,1.3c0.1,0.1,0.2,0.2,0.3,0.3l0.9,0.7c0.2,0.1,0.4,0.2,0.6,0.2c0.1,0,0.2,0,0.2,0l2-0.3
		C180.7,402.5,180.8,402.5,180.9,402.5z M199.4,380.1l-2.8-1.9l-1.9-4.2l-2.3-3.3l-1.5-1.8l-2.3-1.7l-0.2-1.5l-0.5-0.7l-0.9-0.3
		l-1.2,0.7l-0.8,1.5l-1,1.2h-0.4l-2.9-2.4l-1.2-2.2l-0.9-0.8l-2.9-0.3l-1-0.3v-41.3l-1.8-0.9l-3.1-1.5l-3.8,0.7l-5.6-0.4l-0.7-0.9
		l-4.2-1l-4.5,0.4l-2.4-1.6l-3.7-0.4l-3.9-2.1l-2.4,0.4l-1.9,1.7h-2.7l-2.7,0.9l-2.2,1.5l-2.4,0.6l-1.4,1.3l-2.5,3.8l-5.2,1.1
		l-0.8,1.5l0.3,1.2l2.2,0.9l2.9,2l0.7,1.7l0.9,0.4l3.4,0.3l0.7,2.5l-1.1,0.3l-0.5-0.4l-2.3-0.4l-3.8,0.3l-6.5,3.2l-0.8,0.7l0.5,0.6
		l2.1,1l1.3,2.9l1.5,0.8l2.5-0.3l1.4-0.4l0.9,0.4l1.9,0.2l2.7-1.4l1.4-0.2l0.3,1l-0.8,1l0.5,1.2l0.2,2.2l-0.8,0.6l-2.6,0.4
		l-1.1,1.3l-1.4,0.3l-1.4-0.9l-1,0.2l-1.8,3.6l-1.2,1.6l-0.3,1.8l0.5,1.8l1.1,1.3l0.5,2.7l0.7,0.5l1.2,1.9l2.1,0.3l0.7-0.6l1.3-0.5
		l1,0.9l0.5,1.2l-0.4,1.5l0.5,2.2l1,0.3l0.9-0.6l1.7-0.4l1.5,0.7l1,1.7l0.6-0.3v-0.6l-0.4-1.1h0.8l0.8,0.7l1.9-0.5l0.5,0.4
		l-0.8,1.1l-0.4,3.2l-1.9,2.5l-3.8,3.5l-7.6,5.7l-8.4,5.2l-6.7,3.6l-5.7,1.8l-4.7,2.1l-4.8,0.8l-3.8,1.6l8-0.5l1.8-1.1l3-0.5
		l14.9-6.9l19.3-11.2l1.9-2.9l1-0.5l0.9-1.9l3.7-3.3l2.7-3.1v-0.6l-1.4-0.3l-0.3-0.4l0.3-1l1.8-2.3l1.5-1.1l1.2-2.3l1.6-2l1.8-1.2
		l0.8,0.3l0.8,0.6l-0.5,0.6l-1.6,0.3l-2.1,4.8l0.5,0.8l-0.4,0.5l-0.2,0.9l0.8,0.3l1.6-0.4l3.3-2.6l3.2-0.4l1.3-0.7l1.2-1.1l3-0.2
		l3.1,1.2l4.8,0.5l3.6,1.2l5.1,3.6l1.7,1.7l1.6,1h3.3l1,0.6l2.2,2.2l0.2,0.8l-0.3,0.6l-0.5,0.2l-1.5-0.2l-0.9-0.5l-0.9,0.3
		l-0.3,1.1l0.2,2l1.3,1.9l0.6,1.3l0.7,0.6l0.6-0.1l1.6-2.2l0.7-0.3l0.6,0.2l0.3,1.8l1,2.4l0.9,0.8l1.1,0.8l0.5,1l0.8,0.9l1.2-0.3
		l0.5-0.5l0.2-3.5l0.3-1.8L199.4,380.1z M417.4,382.2l-0.4,0.3l-0.1,0.3l0.2,0.5l-0.1,0.3l-0.8,0.5l-0.9,0.3l0.5,1l0.6,0.2l0.3,0.9
		l0.3,0.3l-0.5,0.6l0,0.5l0.1,0.4l-0.3,0.5l-0.1,0.7l0.6,0.2l-0.1,0.2l-0.4,0.2l-0.1,0.2l0,0.5l0.3,0.3l0.2,0l-0.1-0.3l0.2-0.2
		l0.3,0.2l0.8,0.1l0.6-0.5l0.3,0.1l0.6-0.1l0.7,0.6l0.5,0.1l0.1-0.1l0.2-0.3l0.6,0l0.5,0l0.7-0.4l0.6-0.3l0.4,0l0.8,0.4l0.7-0.3
		l0.7,0.3l1.2-0.4l0.6,0l1.2,0.8l0.4-0.5l0.6-0.2l0.5,0.6l0.7,0.2l0.1-0.3l0.4-0.3l0.5,0.3l0.2,0.3l1.2-0.6l0.5,0.2l0.4-0.4
		l0.2-0.1l0.4,0.2l0.9-0.1l0.5-0.2l0.4-0.3l0.3-0.1l0.1-0.3l-0.1-0.3l0.6-0.2l0.3-1l0.7-0.8l0.3-0.1l0.3-0.1l0.4-0.2l0.5,0.1
		l0.3-0.2l0.3-0.3l-0.3-0.4l-0.2-0.4l0-0.4l0-0.4l-0.1-0.2l0.3-0.3l0-0.3l-0.4,0.1l-0.3,0.3l-0.5-0.1l-0.3-0.3l-0.3,0.2l-0.1-0.1
		l-0.3-0.3v-0.2l-0.3-0.1l-0.4,0.2l-0.3-0.4l-0.6-0.1l-0.4-0.2l-0.3,0.1l-1-0.2l-0.1,0.2l-0.3,0l-0.2-0.2l-1.3-0.3l-0.2,0.1
		l-0.5,0.2l-0.2-0.3l-0.5,0.1l-0.7-0.2l-0.2,0.1l-1.7-0.4l-0.6,0.1l-0.3,0.3l-1-0.3l-0.5-0.1l-0.3,0.1l-0.7-0.2l-0.8,0.1l-0.4,0.1
		l-0.1,0.2l-0.5,0l-0.7-0.3l-0.6,0.1l-0.6-0.1l-0.7,0.1l-1-0.1l-0.6-0.3l-1.1-0.1L417.4,382.2z"/>
</g>
<g>
	<path class="st1" d="M106.5,224.6c-2.8,0.7-5.6,1.4-8.5,2.1V243c0,5.1-0.8,7.8-3.8,9.4c-2.9,1.7-6.9,2-12.5,2
		c-0.3-2.8-1.7-7.3-3-10.1c2.7,0.1,5.9,0.1,6.9,0.1c1.1,0,1.5-0.4,1.5-1.5v-13.6c-2.9,0.7-5.7,1.4-8.2,2l-2.1-10.9
		c2.9-0.5,6.5-1.2,10.3-2.1v-12h-8.6v-10.3h8.6v-14.2H98v14.2h7.9v10.3H98v9.6l7.2-1.7L106.5,224.6z M142.9,244.9
		c0.2,0,0.4-0.1,0.5-0.3c0.2-0.3,0.2-0.9,0.3-2.4c0.1-1.5,0.2-4.7,0.2-8.7c1.9,1.7,5.4,3.5,8,4.4c-0.1,4-0.5,8.9-1,10.9
		c-0.5,2.1-1.5,3.5-2.8,4.5c-1.3,1-3.3,1.4-4.9,1.4h-4.3c-2.1,0-4.5-0.8-5.9-2.4c-1.5-1.7-2.2-3.7-2.2-9.7V220h-8.4v3.6
		c0,10.5-2.6,24.4-15.6,32.1c-1.4-2.3-5.5-6.9-7.5-8.6c11.1-6.4,12.1-15.9,12.1-23.7v-13.7h30.6v32.2c0,1.5,0,2.3,0.1,2.6
		s0.2,0.4,0.5,0.4H142.9z M151.2,204.4h-44.3v-10.5h14.9c-0.8-3-2.2-7-3.3-10.1l10.9-2.8c1.5,3.5,3.2,7.9,4,10.9l-6.5,1.9h24.3
		V204.4z"/>
	<path class="st1" d="M199.1,241.1h10.9v-16.2h11.7V255h-11.7V252h-46.4v-26.9h12v16h11.5v-19.8h-30v-11.2h30V203h-24.5v-11.1h24.5
		V182h11.9v9.9h23.9V203h-23.9v7.1H228v11.2h-28.9V241.1z"/>
	<path class="st1" d="M256.7,213.2c0,1.2,0,2.4-0.1,3.6c6.9-2.2,7.5-4.9,7.5-8.3v-6.7h31v8.7c0,1.8,0.2,2.6,1.2,2.6h3.4
		c1.3,0,3.5-0.2,4.7-0.7c0.2,2.9,0.5,7.2,0.8,9.9c-1.4,0.5-3.4,0.7-5.2,0.7h-4.5c-9,0-11.1-3.4-11.2-11.8h-9.9
		c-0.5,4.9-2.5,9.6-8.5,12.9h26.9l1.8-0.3l6.7,2.8c-2.6,7.2-6.5,12.6-11.5,16.9c4.9,1,10.4,1.7,16.7,1.9c-2.2,2.3-4.9,6.8-6.1,9.8
		c-8.9-0.8-16-2.4-22-5c-5.9,2.5-12.5,4-19.9,5.2c-0.8-2.8-2.9-7-4.6-9.4c5.2-0.5,9.9-1.3,14.2-2.5c-2.8-2.5-5.2-5.6-7.2-9.2
		l3.7-0.9h-5.5v-9.2h1.3c-1.1-1.5-2.5-3.4-3.9-4.9c-0.5,12.1-2.7,26.9-10.6,36.3c-1.9-1.9-6.7-5.2-9.3-6.5c4.5-5.3,6.9-12,8-18.9
		c-2.5,1.6-5.1,3.2-7.5,4.6l-3.1-10.4c3.1-1.3,7.2-3.4,11.7-5.6c0.1-1.9,0.1-3.9,0.1-5.6v-2l-6.1,2.8c-1.1-3.8-3.8-9.9-6-14.4
		l8.9-3.8c1,1.9,2.2,4.1,3.2,6.2v-12.7h26.5c-0.7-1.8-1.5-3.7-2.2-5.3l11.2-2.7c1.2,2.5,2.6,5.5,3.5,8h22.7v10.2h-50.8V213.2z
		 M271.5,233.3c1.8,2.4,4.2,4.3,6.9,5.9c2.9-1.6,5.5-3.6,7.5-5.9H271.5z"/>
	<path class="st1" d="M386.9,206v7.9h-51V206h19.6v-2.1h-15v-0.2l-5.9,2.8c-0.4-1.5-1.1-3.5-1.8-5.6V255h-10.1v-45.9
		c-0.5,4.1-1.2,8.2-1.9,11.4l-8-2.8c1.5-5.3,2.6-14,3-20.4l6.9,0.8v-16.3h10.1v11.9l4.4-1.8l1.1,2.4v-7.6h17.2v-4.9h11.1v4.9h17.8
		v7.8h-17.8v2.1h15.6v7.3h-15.6v2.1H386.9z M355.5,196.6v-2.1h-17.2c0.8,1.7,1.5,3.5,2.2,5.1v-3H355.5z M382.1,244.9
		c0,4.6-0.8,7.2-4,8.7c-3.1,1.5-7.1,1.6-12.4,1.6c-0.4-2.8-1.7-6.9-2.9-9.5c2.7,0.2,6.4,0.2,7.4,0.2c1,0,1.4-0.3,1.4-1.2v-0.8
		h-20.4v11.4h-10.3V216h41.3V244.9z M351.1,224v2.4h20.4V224H351.1z M371.5,236.3v-2.2h-20.4v2.2H371.5z"/>
	<path class="st1" d="M147.4,309.1c-3.5,6.2-7.8,11.6-12.6,16.5c1.6,4.6,3.4,7.4,5,7.4c1.3,0,2.2-3.6,2.5-12.3
		c2.4,2.6,6.2,5.2,9.1,6.5c-1.7,14.1-5.1,17.2-12.8,17.2c-5.3,0-9.5-4.2-12.8-10.9c-4.2,3.2-8.5,5.9-13.1,8.4
		c-1.6-2.8-4.7-6.5-7.5-9.1c5.9-2.6,11.5-6,16.8-10.1c-1.6-5.9-2.8-12.6-3.7-19.8H104v6.9l11.1-1.8l0.8,10.2
		c-3.9,0.8-7.9,1.5-11.9,2.3v10.9c0,5.7-1.1,8.7-4.5,10.5c-3.5,1.8-8.3,2.2-14.6,2.2c-0.5-3.2-2.3-8.2-3.9-11.3
		c4,0.2,8.5,0.2,9.9,0.2c1.4,0,1.8-0.4,1.8-1.6v-8.6l-12.5,2.3l-2.6-11.3c4.2-0.5,9.5-1.2,15.2-2.2v-8.5H79.1v-10.5h13.6v-6.9
		c-3.8,0.5-7.6,1-11.2,1.3c-0.5-2.7-1.9-6.9-3.2-9.4c10.9-1.3,22.6-3.6,30.8-6.2l7.5,9.5c-3.9,1.2-8.2,2.1-12.6,2.9v8.7h13.5
		c-0.5-6.9-0.8-14-0.8-20.8h11.7c-0.2,6.9,0.1,13.9,0.6,20.8h20.2v10.5H130c0.5,3.7,1.1,7.2,1.8,10.5c2.2-2.6,4.2-5.5,5.8-8.5
		L147.4,309.1z M140.2,291.4c-1.8-3.6-6.4-8.9-10.4-12.6l8.4-5.7c4,3.5,8.9,8.4,11,12.1L140.2,291.4z"/>
	<path class="st1" d="M179.4,274.1c-1.6,5.5-3.7,11.2-6.1,16.8V344h-10.6v-33.8c-0.5,0.7-1.1,1.4-1.6,2.1
		c-0.8-2.8-3.5-9.3-5.3-12.2c5.5-7.2,10.5-18.1,13.3-29L179.4,274.1z M177.8,288.8h10.9v55.1h-10.9V288.8z M189.7,270.7
		c3.3,4.4,7.7,10.5,9.6,14.4l-9.1,5.7c-1.6-4-5.7-10.4-9-15.1L189.7,270.7z M227,332.3c0,5.2-1,7.9-4.2,9.5
		c-3.2,1.7-7.4,1.9-13.5,1.9c-0.4-2.8-1.9-7.5-3.3-10.2c3.1,0.2,7.1,0.2,8.2,0.2c1.2,0,1.6-0.5,1.6-1.6v-48.9h-17.5v-10H227V332.3z
		"/>
	<path class="st1" d="M258.1,274c-1.7,5.2-3.8,10.6-6.2,15.9V344h-10.2v-36c-1.1,1.5-2.2,2.8-3.2,4.2c-0.8-2.8-3.5-9.3-5.2-12.3
		c5.9-7,11.4-17.9,14.6-28.9L258.1,274z M304.1,294.1c-1.1,11.7-2.9,21.6-6.4,29.8c2.5,4.5,5.8,8.2,10,10.9
		c-1.9,1.9-5.1,6.1-6.5,8.8c-3.6-2.7-6.5-6.2-8.9-10c-2.8,3.9-6.2,7.2-10.3,10c-1.2-1.8-4.6-5.8-6.6-7.5l1-0.6h-11.5v5.7h-9.5
		v-35.3h7.2v-11.5h-7.9v-10h7.9v-12.4H273v12.4h6.9v10H273v11.5h4.6c-0.7-1.1-1.4-2-1.9-2.7c5.4-7.6,8.3-19.7,9.8-32.2l9.9,1.7
		c-0.6,4.1-1.4,8.1-2.3,12.1h14.6v9.3H304.1z M270.1,315.3h-5.3v10.9h5.3V315.3z M279.8,333c3.2-2.7,5.6-5.9,7.6-9.4
		c-1.6-4.5-2.8-9.1-3.8-13.7c-0.7,1.1-1.4,2.1-2.2,3.1c-0.4-0.8-1-2-1.7-3.3V333z M290.6,294.1c-0.3,0.9-0.6,1.8-0.8,2.6
		c0.5,4.5,1.4,9.1,2.6,13.6c1.2-4.9,1.8-10.3,2.3-16.2H290.6z"/>
	<path class="st1" d="M341.9,292c-2,3.2-4.3,6.6-6.9,9.9V344h-10.9v-30.3c-1.9,1.8-3.8,3.5-5.8,5c-0.8-2.5-3.5-8.9-5.1-11.7
		c6.7-4.6,14.3-12,18.9-19.2L341.9,292z M340.4,275.3c-5.5,7.4-13.6,15.2-21.1,19.9c-1.2-2.5-3.8-7.2-5.5-9.5
		c5.9-3.5,12.7-9.8,15.9-14.7L340.4,275.3z M386.4,324.5h-10v8.9c0,4.9-0.8,7.5-4.2,9c-3.2,1.5-7.2,1.6-12.2,1.6
		c-0.5-2.8-1.8-6.7-3.2-9.4l-5.9,4.2c-1.6-2.8-5.5-7.3-8.5-10.5l5.6-3.8h-9.9v-9.4h26.9V312h-24.8v-9.1h44.4v9.1h-8.3v3.1h10V324.5
		z M382.9,300.6h-39.2v-27.6h39.2V300.6z M365.1,324.5h-13.3c2.8,2.7,5.9,6,7.5,8.4l-1.7,1.2c2.4,0.1,5.2,0.1,6.1,0.1
		c1.1-0.1,1.4-0.3,1.4-1.2V324.5z M371.5,280.8h-17.1v2.5h17.1V280.8z M371.5,290.4h-17.1v2.5h17.1V290.4z"/>
	<path class="st1" d="M417.9,327.5c4.6-0.7,9.3-1.5,13.9-2.2l0.6,9.5c-13.5,2.5-28.1,5.1-38.8,6.9l-2.4-10.2
		c4.5-0.5,10.1-1.4,16.1-2.3v-8.9h-13.6v-9.6h13.6v-6.1h10.5v6.1h13v9.6h-13V327.5z M392.1,275.1h40.6v9.5h-9.5
		c3.6,4.9,7.5,10.8,9.2,15l-8.5,5.5c-0.3-0.9-0.8-2-1.3-3.2c-19.8,1.5-23.3,1.7-25.8,2.8c-0.6-2.2-2.4-7.2-3.5-10
		c1.2-0.4,2.5-1.5,3.6-3.2c0.7-1,2.2-3.6,3.5-6.9h-8.3V275.1z M417.7,293.2c-1.2-1.9-2.5-3.7-3.6-5.4l5.2-3.2h-6.9
		c-1.6,3.1-3.5,6.2-5.5,9L417.7,293.2z M445.2,325.2h-10.3v-46.8h10.3V325.2z M460.3,271.5V331c0,5.5-1,8.3-4.2,10
		c-3.3,1.7-7.9,2.1-14.1,2.1c-0.5-2.9-2.2-7.7-3.8-10.5c3.8,0.2,8,0.2,9.3,0.2c1.4,0,1.8-0.5,1.8-1.8v-59.4H460.3z"/>
	<path class="st1" d="M472,329.3c0-4.7,3.4-8.5,8.1-8.5c4.8,0,8.2,3.8,8.2,8.5c0,4.8-3.4,8.5-8.2,8.5
		C475.3,337.8,472,334,472,329.3z M473.7,289.9l-0.5-12.2H487l-0.5,12.2l-2,26h-8.9L473.7,289.9z"/>
</g>
</svg>
