<?xml version="1.0" encoding="utf-8"?>
<!-- Generator: Adobe Illustrator 26.0.2, SVG Export Plug-In . SVG Version: 6.00 Build 0)  -->
<svg version="1.1" id="Layer_1" xmlns="http://www.w3.org/2000/svg" xmlns:xlink="http://www.w3.org/1999/xlink" x="0px" y="0px"
	 viewBox="0 0 288 144" style="enable-background:new 0 0 288 144;" xml:space="preserve">
<style type="text/css">
	.st0{fill:#FFFFFF;}
	.st1{fill:#0E4C87;}
	.st2{fill:#D92E27;}
</style>
<g>
	<polygon class="st0" points="71,90.05 81.07,42.68 15.14,42.68 5.08,90.05 	"/>
	<path class="st1" d="M16.51,44.64c0,0,36.66,7.53,37.38,7.65c8.42,1.49,8.16,3.11,8.16,3.11c5.9-0.03,6.63,0.21,7.66,1.07
		c3.1,2.59-1.94,10.23-1.94,10.23c-0.72,0.53-55.25,21.59-55.25,21.59h57.05l9.33-43.86H16.56L16.51,44.64z"/>
	<path class="st1" d="M16.51,44.64c0,0,36.66,7.53,37.38,7.65c8.42,1.49,8.16,3.11,8.16,3.11c5.9-0.03,6.63,0.21,7.66,1.07
		c3.1,2.59-1.94,10.23-1.94,10.23c-0.72,0.53-55.25,21.59-55.25,21.59h57.05l9.33-43.86H16.56L16.51,44.64z"/>
	<path class="st1" d="M59.19,58.85c-0.83,0.41-2.99,0.63-4,0.72c-0.97,0.08-1.24,0.18-1.25,0.56c-0.01,0.34,0.14,0.53,1.54,0.53
		c3.2,0,8.97-1.21,10.7-0.66c0.92,0.3,0.19,1.93-0.57,4.08c-0.29,0.83,0.28,0.77,0.61,0.41c0.33-0.37,1.83-3.1,1.99-4.5
		c0.23-1.98-1.46-2.28-3.81-2.28h-3.73c-0.19,0-0.36,0.13-0.58,0.44C59.89,58.4,59.72,58.58,59.19,58.85"/>
	<path class="st1" d="M14.4,54.58L7.24,88.3c0,0,21.93-10.77,24.62-12.14c5.5-2.82,13.1-6.56,20.12-8.95
		c1.34-0.45,7.07-2.22,10.41-2.81c1.3-0.23,1.85-0.45,1.82-0.7c-0.04-0.69-1.34-0.73-3.55-0.63c-6.72,0.32-19.61,5.45-23.32,7.4
		L33.15,57.5h26.76c1.2-3.37-15.83-2.9-16.36-2.93H14.4L14.4,54.58z"/>
	<path class="st1" d="M94.56,61.17c-4.33,0-6.92-1.74-6.07-5.59c1.42-6.67,2.37-11.15,2.37-11.15h3.62c0,0-2.23,10.3-2.16,10.04
		c-0.57,2.55,0,4.09,2.78,4.11c2.66,0,4.01-1.54,4.56-4.11c0.31-1.47,2.15-10.04,2.15-10.04h3.63c-2.44,11.15,0,0-2.41,11.15
		C102.2,59.43,98.91,61.17,94.56,61.17"/>
	<polygon class="st1" points="119.89,60.88 115.32,60.88 111.26,48.67 111.19,48.67 108.65,60.88 105.43,60.88 108.92,44.43
		113.63,44.43 117.53,56.77 117.57,56.77 120.16,44.43 123.37,44.43 	"/>
	<polygon class="st1" points="126.99,60.88 123.37,60.88 126.85,44.43 130.48,44.43 	"/>
	<polygon class="st1" points="146.18,47.05 141.07,47.05 138.14,60.88 134.51,60.88 137.45,47.05 132.33,47.05 132.91,44.43
		146.74,44.43 	"/>
	<polygon class="st1" points="160.53,47.05 152.24,47.05 151.33,51.33 158.55,51.33 158.03,53.76 150.8,53.76 149.86,58.26
		158.14,58.26 157.59,60.88 145.67,60.88 149.17,44.43 161.07,44.43 	"/>
	<path class="st1" d="M167.67,60.88h-7.43l3.48-16.45h7.98c4.98,0,6.65,3.3,5.95,7.5C176.66,57.85,172.25,60.88,167.67,60.88
		 M170.51,47.05h-3.69l-2.38,11.21h2.59c4.1,0,6.46-2.68,7.1-6.37C174.59,49.27,173.51,47.05,170.51,47.05"/>
	<path class="st1" d="M195.27,47.05h-3.87c-1.97,0-2.87,0.41-3.05,1.22c-0.55,2.62,6.53,4.7,5.87,8.73
		c-0.37,2.25-2.34,3.88-6.88,3.88h-5.55l0.55-2.62h4.48c1.38,0,3.07,0.07,3.39-1.31c0.53-2.36-6.44-4.7-5.91-8.64
		c0.31-2.37,2.43-3.88,6.69-3.88h4.86L195.27,47.05z"/>
	<polygon class="st1" points="210.98,47.05 205.87,47.05 202.93,60.88 199.31,60.88 202.25,47.05 197.13,47.05 197.71,44.43
		211.53,44.43 	"/>
	<polygon class="st1" points="211.64,60.88 213.06,58.26 218.25,58.26 216.8,47.69 209.58,60.88 205.95,60.88 215.38,44.43
		219.71,44.43 222.28,60.88 	"/>
	<polygon class="st1" points="236.99,47.05 231.88,47.05 228.94,60.88 225.32,60.88 228.25,47.05 223.14,47.05 223.71,44.43
		237.54,44.43 	"/>
	<polygon class="st1" points="251.31,47.05 243.03,47.05 242.11,51.33 249.33,51.33 248.81,53.76 241.58,53.76 240.64,58.26
		248.93,58.26 248.37,60.88 236.44,60.88 239.96,44.43 251.86,44.43 	"/>
	<path class="st1" d="M264.11,47.05h-3.87c-1.97,0-2.87,0.41-3.05,1.22c-0.55,2.62,6.54,4.7,5.88,8.73
		c-0.37,2.25-2.34,3.88-6.89,3.88h-5.55l0.55-2.62h4.48c1.37,0,3.07,0.07,3.39-1.31c0.53-2.36-6.44-4.7-5.92-8.64
		c0.32-2.37,2.44-3.88,6.7-3.88h4.86L264.11,47.05z"/>
	<path class="st1" d="M89.65,82c-0.58,0-1.19-0.09-1.72-0.13l-0.19-2.39c0.46,0.05,1.05,0.12,1.6,0.12c2.48,0,3.38-1.7,3.58-2.68
		c0.39-1.79-0.52-2.45-1.86-2.45h-2.96l-2.93,13.83h-3.63l3.49-16.45h7.87c3.55,0,3.97,3.1,3.53,5.16C95.77,80.13,92.9,82,89.65,82"
		/>
	<path class="st1" d="M104.44,88.58c-5.07,0-7.91-3.85-6.93-8.52c1.24-5.85,5.48-8.51,10.57-8.51c5.05,0,7.96,3.62,6.91,8.51
		C113.7,86.04,109.58,88.58,104.44,88.58 M107.51,74.16c-3.28,0-5.46,2.17-6.31,5.9c-0.71,3.18,0.41,5.91,3.81,5.91
		c3.28,0,5.48-2.2,6.26-5.91C111.99,76.73,110.86,74.16,107.51,74.16"/>
	<path class="st1" d="M128.14,74.46h-3.87c-1.98,0-2.87,0.41-3.06,1.22c-0.54,2.61,6.54,4.7,5.87,8.74
		c-0.36,2.24-2.33,3.87-6.88,3.87h-5.55l0.55-2.62h4.48c1.37,0,3.07,0.07,3.4-1.3c0.52-2.37-6.45-4.7-5.92-8.65
		c0.32-2.37,2.43-3.88,6.7-3.88h4.87L128.14,74.46z"/>
	<polygon class="st1" points="143.85,74.46 138.74,74.46 135.8,88.29 132.18,88.29 135.11,74.46 130,74.46 130.57,71.84
		144.4,71.84 	"/>
	<polygon class="st1" points="144.53,88.29 145.96,85.67 151.14,85.67 149.7,75.1 142.46,88.29 138.85,88.29 148.27,71.84
		152.61,71.84 155.17,88.29 	"/>
	<polygon class="st1" points="168.19,88.29 157.06,88.29 160.55,71.84 164.19,71.84 161.26,85.67 168.76,85.67 	"/>
	<path class="st1" d="M187.79,74.46h-3.87c-1.97,0-2.87,0.41-3.05,1.22c-0.54,2.61,6.54,4.7,5.88,8.74
		c-0.37,2.24-2.34,3.87-6.88,3.87h-5.55l0.56-2.62h4.47c1.37,0,3.07,0.07,3.39-1.3c0.52-2.37-6.44-4.7-5.91-8.65
		c0.31-2.37,2.43-3.88,6.69-3.88h4.87L187.79,74.46z"/>
	<polygon class="st1" points="202.86,74.46 194.58,74.46 193.66,78.75 200.88,78.75 200.36,81.18 193.13,81.18 192.19,85.67
		200.47,85.67 199.92,88.29 188,88.29 191.5,71.84 203.41,71.84 	"/>
	<path class="st1" d="M213.28,81.21l2.71,7.08h-3.96l-2.99-9.01c0.46,0.07,1.03,0.05,1.38,0.05c1.86,0,3.56-0.78,3.95-2.73
		c0.2-1.04,0.02-2.16-2-2.16h-3.25l-2.94,13.85h-3.62l3.49-16.45h7.66c3.21,0,4.5,1.45,4.28,4.2
		C217.76,79.14,215.69,80.86,213.28,81.21"/>
	<polygon class="st1" points="226.66,88.29 222.38,88.29 219.9,71.84 223.53,71.84 225.22,85.03 232.45,71.84 236.03,71.84 	"/>
	<polygon class="st1" points="238.35,88.29 234.72,88.29 238.21,71.84 241.84,71.84 	"/>
	<path class="st1" d="M256.53,74.69c-1.03-0.3-2.18-0.53-3.86-0.53c-3.28,0-6.07,2.17-6.85,5.9c-0.78,3.71,1.08,5.91,4.36,5.91
		c1.72,0,3.1-0.25,4.41-0.58l-0.89,2.83c-1.33,0.2-2.67,0.36-4.06,0.36c-5.05,0-8.78-2.63-7.53-8.52c1.24-5.9,6.1-8.51,11.15-8.51
		c1.22,0,2.44,0.16,3.6,0.37L256.53,74.69z"/>
	<polygon class="st1" points="271.14,74.46 262.86,74.46 261.94,78.75 269.17,78.75 268.64,81.18 261.42,81.18 260.48,85.67
		268.75,85.67 268.21,88.29 256.28,88.29 259.79,71.84 271.69,71.84 	"/>
	<polygon class="st2" points="272.73,66.98 272.99,65.76 86.33,65.76 86.07,66.98 	"/>
	<path class="st1" d="M283.26,83.56c0,2.69-2.09,4.8-4.8,4.8c-2.71,0-4.8-2.1-4.8-4.8c0-2.7,2.09-4.8,4.8-4.8
		C281.17,78.76,283.26,80.87,283.26,83.56 M274.41,83.56c0,2.29,1.73,4.11,4.05,4.11c2.32,0,4.05-1.82,4.05-4.11
		c0-2.29-1.73-4.12-4.05-4.12C276.14,79.45,274.41,81.27,274.41,83.56 M277.4,86.33h-0.68v-5.55h2.13c1.25,0,1.8,0.54,1.8,1.54
		c0,0.98-0.64,1.42-1.39,1.55l1.65,2.46h-0.8l-1.56-2.46h-1.15V86.33z M278.31,83.29c0.84,0,1.66-0.03,1.66-0.97
		c0-0.77-0.65-0.95-1.32-0.95h-1.25v1.92H278.31z"/>
</g>
</svg>
